<svg xmlns="http://www.w3.org/2000/svg" viewBox="0 0 78.92 35.18"><defs><style>.cls-1{fill:#3cc;}.cls-2{fill:#fff;}</style></defs><title>btn_2_1</title><g id="Layer_2" data-name="Layer 2"><g id="Layer_1-2" data-name="Layer 1"><path d="M12.92,2.31a4.12,4.12,0,0,0-1.06-1.15,5.24,5.24,0,0,0-1.38-.7A7.77,7.77,0,0,0,8.8.09a19.5,19.5,0,0,0-2-.09H1.06A1,1,0,0,0,0,1v9.5a8.89,8.89,0,0,0,3.77,4.07V12.68a1.09,1.09,0,0,1,1-1.22h1.7A8.37,8.37,0,0,0,11.89,10,5.4,5.4,0,0,0,13.75,5.5a7.15,7.15,0,0,0-.19-1.69A5.32,5.32,0,0,0,12.92,2.31ZM9.56,7.19A2,2,0,0,1,8.71,8a3.41,3.41,0,0,1-1.23.33q-.7.06-1.44.06H4.42c-.4,0-.65-.33-.65-.81V3.7a.57.57,0,0,1,.61-.62H6c.54,0,1,0,1.51,0a3.29,3.29,0,0,1,1.22.3,1.85,1.85,0,0,1,.81.77,3,3,0,0,1,.29,1.47A3,3,0,0,1,9.56,7.19Zm-5.79,8A10.39,10.39,0,0,1,0,12.74v4.59s-.07.75.65.75H3.17c.69,0,.6-.75.6-.75ZM39.41,5H37.15a.91.91,0,0,0-.94.71L33.63,13,31.16,5.84a1,1,0,0,0-1-.85H28.08c-.73,0-.73.58-.64.82s2.91,8.1,4,11.11a4.45,4.45,0,0,1,.36,1.19,3.09,3.09,0,0,1-.44,1.13,2.87,2.87,0,0,1-.29.41c2.12-.65,4.56-3,5.83-5.52,1.25-3.53,2.9-8.2,3-8.44S40,5,39.41,5Zm-10,15.33a5.41,5.41,0,0,1-.59,0c-.24,0-.68,0-.68.41v1.77c0,.68.32.72.49.76a7.27,7.27,0,0,0,1.6.16,4.12,4.12,0,0,0,1.86-.4,4.48,4.48,0,0,0,1.4-1.1,7.83,7.83,0,0,0,1.08-1.68q.47-1,.91-2.14l.33-.93C35.22,17.78,32.28,20.61,29.44,20.33ZM26.05,7.1a3.08,3.08,0,0,0-.5-.81,3.49,3.49,0,0,0-.7-.61A5.2,5.2,0,0,0,24,5.21a6.7,6.7,0,0,0-1-.3,7.82,7.82,0,0,0-1.14-.16c-.42,0-.88,0-1.4,0Q15.34,4.7,14.63,8a.55.55,0,0,0,.51.72h2.1c.55,0,.53-.18.79-.68a1.5,1.5,0,0,1,.5-.69,2.91,2.91,0,0,1,1.81-.47A2.55,2.55,0,0,1,22,7.32a2,2,0,0,1,.62,1.39c0,.72-.22,1.2-1.08,1.2a11.56,11.56,0,0,0-5.61.9,4.24,4.24,0,0,0-2,3.73,3.85,3.85,0,0,0,.33,1.66,3.33,3.33,0,0,0,.93,1.19,4,4,0,0,0,1.42.72,6.46,6.46,0,0,0,1.8.24A7.67,7.67,0,0,0,20.88,18a8.94,8.94,0,0,0,1.91-1.11v.41c0,.4.12.76.6.76h2.45c.5,0,.61-.36.61-.8V9.61a9.57,9.57,0,0,0-.09-1.42A4.52,4.52,0,0,0,26.05,7.1ZM22.72,14.6s-.63,1.33-2.88,1.33a2.48,2.48,0,0,1-1.51-.43,1.53,1.53,0,0,1-.58-1.33,1.71,1.71,0,0,1,.95-1.65A7.11,7.11,0,0,1,21.52,12c.95,0,1.19.63,1.19,1Z"/><path class="cls-1" d="M78.48,9.69a3,3,0,0,1,0,3.09,70.83,70.83,0,0,1-4.73,5.38,5.14,5.14,0,0,1-3.29,1.9H45.6c-3.36,0-3.56-1.16-3.56-3.78V5.66c0-2.67.78-3.45,3.07-3.45H70.48a4.87,4.87,0,0,1,3.46,1.87C75,5.15,78.05,9.07,78.48,9.69Z"/><path class="cls-2" d="M47.67,6.32V6.25c0-.34,0-.68-.58-.68H45c-.48,0-.51.27-.51.69V9.07A8.74,8.74,0,0,1,47.67,6.32Z"/><path class="cls-2" d="M61.63,16.47v-.15h0V9.56q0-4.25-3.68-4.25A3.63,3.63,0,0,0,56,5.84a7.05,7.05,0,0,0-1.68,1.5,3,3,0,0,0-1.2-1.54,3.88,3.88,0,0,0-2.07-.49,4.76,4.76,0,0,0-2.93,1c-.18.18-3.63,2.94-3.63,5.78v4.33c0,.14-.06.66.51.66h2.16c.67,0,.61-.45.61-.63v-7c.37-.49,1.11-1.71,2.33-1.71a1.1,1.1,0,0,1,1,.48,3.12,3.12,0,0,1,.31,1.61v5.47h0v1.12c0,.14-.07.66.51.66h2.14c.67,0,.61-.45.61-.63v-.15h0V9.47C55.07,9,55.85,7.76,57,7.76a1.14,1.14,0,0,1,1,.48,3.08,3.08,0,0,1,.31,1.61v5.47h0v1.12c0,.14-.06.66.51.66H61C61.69,17.1,61.63,16.65,61.63,16.47Z"/><path class="cls-2" d="M73.55,13.72A5,5,0,0,1,68.65,17c-3.31,0-5.49-2.29-5.49-5.73s2.27-5.86,5.39-5.86,5.16,2.19,5.29,5.71c0,.45-.11.85-.67.85h-7c0,1.89.94,2.91,2.52,2.91a2.18,2.18,0,0,0,2-1.25.78.78,0,0,1,.66-.34h1.81A.37.37,0,0,1,73.55,13.72Zm-5-6.12a2.43,2.43,0,0,0-2.39,2.46h4.7C70.73,8.72,70,7.6,68.54,7.6Z"/><path d="M9.16,35.07V27.58h2.07a2.55,2.55,0,0,1,1.68.5,1.86,1.86,0,0,1,.6,1.51,1.68,1.68,0,0,1-.26.93,1.53,1.53,0,0,1-.73.6,1.46,1.46,0,0,1,1,.62A2.08,2.08,0,0,1,13.89,33a2,2,0,0,1-.59,1.58,2.34,2.34,0,0,1-1.64.54Zm1-4.25h1.19a1.07,1.07,0,0,0,.79-.33,1.23,1.23,0,0,0-.95-2.12h-1Zm0,.75v2.7h1.45a1.12,1.12,0,0,0,.88-.34,1.42,1.42,0,0,0,.31-1,1.52,1.52,0,0,0-.3-1,1.09,1.09,0,0,0-.85-.39H10.21Z"/><path d="M16.38,35.07h-1V27.58h1Z"/><path d="M19.22,34.28h3v.79H18.17V27.58h1Z"/><path d="M26.93,33.18H24.69l-.54,1.89H23.06l2.25-7.49h1l2.23,7.49H27.47Zm-2-.83H26.7l-.86-3h0Z"/><path d="M34.71,35.07H33.66l-2.9-5.53h0v5.52h-1V27.58h1l2.9,5.51h0V27.58h1.05Z"/><path d="M43.46,28.38h-2v6.69h-1V28.38h-2v-.8h5Z"/><path d="M49.52,32.36a2.86,2.86,0,0,1-.72,2.08,2.56,2.56,0,0,1-1.93.74,2.49,2.49,0,0,1-1.9-.74,2.9,2.9,0,0,1-.71-2.08V30.3A2.92,2.92,0,0,1,45,28.22a2.47,2.47,0,0,1,1.89-.75,2.56,2.56,0,0,1,1.93.75,2.87,2.87,0,0,1,.72,2.08Zm-1-2.07a2.28,2.28,0,0,0-.42-1.48,1.47,1.47,0,0,0-1.2-.51,1.39,1.39,0,0,0-1.16.51,2.34,2.34,0,0,0-.4,1.48v2.07a2.36,2.36,0,0,0,.41,1.5,1.4,1.4,0,0,0,1.16.51,1.46,1.46,0,0,0,1.19-.51,2.32,2.32,0,0,0,.42-1.5Z"/><path d="M52,28.65l-.44,1.6H51l0-1.59V27.58H52Z"/><path d="M54.74,34.28h3v.79H53.7V27.58h1Z"/><path d="M63.75,32.36A2.86,2.86,0,0,1,63,34.44a2.56,2.56,0,0,1-1.93.74,2.49,2.49,0,0,1-1.9-.74,2.9,2.9,0,0,1-.71-2.08V30.3a2.92,2.92,0,0,1,.71-2.08,2.47,2.47,0,0,1,1.89-.75,2.56,2.56,0,0,1,1.93.75,2.87,2.87,0,0,1,.72,2.08Zm-1-2.07a2.28,2.28,0,0,0-.42-1.48,1.47,1.47,0,0,0-1.2-.51,1.39,1.39,0,0,0-1.16.51,2.34,2.34,0,0,0-.4,1.48v2.07a2.36,2.36,0,0,0,.41,1.5,1.4,1.4,0,0,0,1.16.51,1.46,1.46,0,0,0,1.19-.51,2.32,2.32,0,0,0,.42-1.5Z"/><path d="M67.19,33.35l.11.46h0l.11-.45L69,27.58h1.12l-2.29,7.49h-1l-2.29-7.49h1.11Z"/></g></g></svg>