<svg width="65" height="47" viewBox="0 0 65 47" fill="none" xmlns="http://www.w3.org/2000/svg">
    <path d="M22.6562 6.62354C17.2794 6.62354 15.625 8.2775 15.625 13.6529C15.625 19.0283 17.2794 20.6823 22.6562 20.6823C28.0331 20.6823 29.6875 19.0283 29.6875 13.6529C29.6875 8.2775 28.0331 6.62354 22.6562 6.62354Z" stroke="#F08D34" stroke-width="3" stroke-linecap="round" stroke-linejoin="round"/>
    <path d="M22.6562 26.3058C17.2794 26.3058 15.625 27.9597 15.625 33.3351C15.625 38.7105 17.2794 40.3645 22.6562 40.3645C28.0331 40.3645 29.6875 38.7105 29.6875 33.3351C29.6875 27.9597 28.0331 26.3058 22.6562 26.3058Z" stroke="#F08D34" stroke-width="3" stroke-linecap="round" stroke-linejoin="round"/>
    <path d="M42.3438 26.3058C36.9669 26.3058 35.3125 27.9597 35.3125 33.3351C35.3125 38.7105 36.9669 40.3645 42.3438 40.3645C47.7206 40.3645 49.375 38.7105 49.375 33.3351C49.375 27.9597 47.7206 26.3058 42.3438 26.3058Z" stroke="#F08D34" stroke-width="3" stroke-linecap="round" stroke-linejoin="round"/>
    <path d="M42.3438 6.62354C36.9669 6.62354 35.3125 8.2775 35.3125 13.6529C35.3125 19.0283 36.9669 20.6823 42.3438 20.6823C47.7206 20.6823 49.375 19.0283 49.375 13.6529C49.375 8.2775 47.7206 6.62354 42.3438 6.62354Z" stroke="#F08D34" stroke-width="3" stroke-linecap="round" stroke-linejoin="round"/>
</svg>
