<svg width="65" height="47" viewBox="0 0 65 47" fill="none" xmlns="http://www.w3.org/2000/svg">
    <g clip-path="url(#clip0_115_7289)">
        <path d="M2.52769 14.4128C2.52769 14.4128 2.63821 14.026 2.99741 13.7497C4.00593 13.0036 6.0506 14.5786 8.96564 15.6838C11.9774 16.8029 14.4641 16.8857 15.6937 16.9134C17.7107 16.9548 19.0923 16.6785 20.2113 16.3055C21.3165 15.9325 22.0902 15.4766 22.2836 15.3661C23.2645 14.7858 23.9 14.1779 24.7704 13.349C25.0743 13.0589 25.0191 13.1003 26.7874 11.332C26.7874 11.332 27.0637 11.0557 27.6163 10.5307C28.017 10.1439 28.169 10.0057 28.3486 9.85374C28.5834 9.66032 28.7768 9.48073 29.0393 9.31494C29.5643 8.95574 29.8959 8.7347 30.338 8.72088C30.8906 8.69325 31.5813 8.96956 31.8162 9.50836C31.9544 9.83992 31.8991 10.1853 31.7195 10.6412C31.1945 11.9951 30.186 12.8379 30.0202 12.9898C30.0202 12.9898 28.5282 14.4681 27.0085 16.5127C25.475 18.5712 24.9638 20.6297 24.425 22.7711C23.9967 24.4565 23.6652 25.8105 23.7619 27.6617C23.8586 29.3748 24.3836 30.9498 24.9362 32.6905C25.2401 33.6714 25.4059 34.1549 25.6684 34.749C25.7375 34.9009 25.9861 35.4536 26.2763 36.2134C26.373 36.4621 26.4282 36.6002 26.442 36.6417C26.4835 36.7936 26.8151 37.9818 26.1657 38.6173C25.9309 38.8383 25.5579 39.0179 25.1848 38.9903C24.1763 38.9488 23.4994 37.664 22.9329 36.5864C22.2422 35.2878 22.4218 35.0944 21.7034 33.7681C21.2337 32.8977 20.8606 32.1793 20.0594 31.5576C19.0508 30.7702 17.9871 30.6182 17.614 30.5767C17.1858 30.5215 15.9009 30.3695 14.6023 31.0465C13.7457 31.5024 13.3037 32.1102 12.3918 33.3536C12.2537 33.547 12.0603 33.8233 10.7893 35.8404C9.71167 37.5811 9.42154 38.0647 8.81367 38.189C8.27487 38.2995 7.63937 38.1199 7.26635 37.6778C6.9486 37.291 6.9486 36.6831 7.4045 35.3292C8.02619 33.4641 8.86893 32.0964 9.42154 31.2399C11.0379 28.7393 11.2314 28.9189 11.6734 27.7999C12.0326 26.9157 12.682 25.3407 12.1432 23.6138C11.784 22.4395 11.0241 21.7073 10.2643 20.9751C9.50444 20.2429 8.73078 19.787 7.21109 18.9028C5.04208 17.6456 4.17172 17.3417 3.21846 16.1812C2.77637 15.5871 2.37572 14.993 2.52769 14.4128Z" fill="#364D9D"/>
        <path d="M16.3154 15.6425C18.6883 15.6425 20.6119 13.7188 20.6119 11.3459C20.6119 8.97296 18.6883 7.04932 16.3154 7.04932C13.9424 7.04932 12.0188 8.97296 12.0188 11.3459C12.0188 13.7188 13.9424 15.6425 16.3154 15.6425Z" fill="#364D9D"/>
        <path d="M33.2669 6.91107C33.032 7.22882 33.0596 7.58802 33.0873 7.90577C33.1149 8.23734 33.2116 8.4722 33.405 8.94192C33.4603 9.06626 33.6261 9.46691 33.9162 9.95044C33.9853 10.061 34.0267 10.1439 34.0543 10.1715C34.7175 11.18 35.049 11.6774 35.9885 12.9346C37.0799 14.3852 37.674 16.1812 38.1437 17.5765C38.4476 18.4883 38.8759 19.8284 39.0693 21.583C39.1798 22.5638 39.4147 25.023 38.572 27.8551C38.0332 29.6511 36.5825 33.2293 35.2563 34.7904C35.1734 34.9009 34.6484 35.495 34.4826 36.393C34.4135 36.7246 34.2892 37.4015 34.6484 37.7745C35.1181 38.2719 36.1681 37.9818 36.7621 37.6502C36.9556 37.5397 37.1766 37.3877 38.0332 36.4068C38.7101 35.6193 39.1936 35.0115 39.2351 34.9424C40.4923 33.2984 40.4094 33.2293 41.0173 32.5661C41.6942 31.8201 42.1087 31.3642 42.8547 31.0326C43.1448 30.8945 44.2362 30.4248 45.5072 30.7702C46.502 31.0326 47.096 31.6543 47.5934 32.1793C47.842 32.428 48.0631 32.7181 49.1683 34.6246C50.0387 36.1443 50.4808 36.9042 50.6466 37.2634C50.7985 37.5811 51.2268 38.5206 51.959 39.612C52.1801 39.9297 52.4425 40.3027 52.9261 40.4823C52.9952 40.51 53.6997 40.7586 54.1695 40.3856C54.28 40.3027 54.5563 40.0402 54.5701 38.9074C54.5839 37.7469 54.2938 36.7798 54.0037 36.02C53.9208 35.7851 53.7964 35.495 53.0366 33.9753C52.0557 32.0273 51.9728 31.9306 51.5998 31.1017C50.9643 29.6787 50.6466 28.9465 50.6327 28.1452C50.6189 27.192 50.9229 26.4045 51.1715 25.7414C51.365 25.2302 51.6413 24.498 52.1801 23.8349C52.4149 23.5447 52.9675 22.9369 55.1365 22.025C57.4023 21.0718 59.516 20.4777 59.516 20.4777C60.0686 20.3119 60.9942 20.0633 61.7955 19.3034C62.4587 18.6679 62.5001 18.1982 62.5001 18.0048C62.5001 17.9219 62.5001 17.4522 62.1685 17.093C61.8508 16.7338 61.3811 16.6509 60.6903 16.6233C59.0739 16.5542 57.872 16.789 57.872 16.789C56.9602 16.9686 56.7668 17.0792 55.1504 17.5212C53.3958 18.0048 52.4978 18.2535 51.6274 18.3225C50.4946 18.4192 49.569 18.3087 49.0578 18.2258C47.3447 17.9495 46.1428 17.3278 45.8803 17.1897C44.9408 16.6923 43.9047 15.9187 43.3659 15.518C43.3106 15.4766 43.2554 15.4351 43.2554 15.4351C43.0481 15.2832 42.537 14.8963 41.9982 14.3852C41.6804 14.0812 41.2107 13.6391 40.6995 12.976C40.2989 12.451 39.3732 11.0833 38.7516 10.2958C38.4891 9.97807 36.624 7.79525 35.3115 6.84199C34.98 6.59332 34.7175 6.42753 34.3445 6.3999C34.3306 6.44135 33.6261 6.3999 33.2669 6.91107Z" fill="#E782D6"/>
        <path d="M48.809 15.8773C51.182 15.8773 53.1056 13.9537 53.1056 11.5807C53.1056 9.20782 51.182 7.28418 48.809 7.28418C46.4361 7.28418 44.5125 9.20782 44.5125 11.5807C44.5125 13.9537 46.4361 15.8773 48.809 15.8773Z" fill="#E782D6"/>
    </g>
    <defs>
        <clipPath id="clip0_115_7289">
            <rect width="60" height="34.193" fill="white" transform="translate(2.5 6.3999)"/>
        </clipPath>
    </defs>
</svg>
