<svg width="65" height="47" viewBox="0 0 65 47" fill="none" xmlns="http://www.w3.org/2000/svg">
    <rect x="17.5" y="4" width="30" height="39" rx="1" stroke="#F08D34" stroke-width="2"/>
    <line x1="23.7144" y1="20.5" x2="41.2858" y2="20.5" stroke="#F08D34" stroke-width="3" stroke-linecap="round"/>
    <line x1="23.7144" y1="34.5" x2="41.2858" y2="34.5" stroke="#F08D34" stroke-width="3" stroke-linecap="round"/>
    <line x1="23.7144" y1="27.5" x2="41.2858" y2="27.5" stroke="#F08D34" stroke-width="3" stroke-linecap="round"/>
    <path d="M23.9623 14H23.0383L23.3863 9.956H24.4003C24.8843 11.216 25.1563 11.938 25.2163 12.122C25.2803 12.306 25.3323 12.48 25.3723 12.644C25.4363 12.38 25.5763 11.972 25.7923 11.42L26.3623 9.956H27.3763L27.7963 14H26.8723L26.7223 12.434L26.6443 11.252C26.5603 11.496 26.2263 12.398 25.6423 13.958H25.0963C24.5443 12.47 24.2263 11.568 24.1423 11.252C24.1423 11.536 24.1243 11.93 24.0883 12.434L23.9623 14ZM30.9978 14H28.4838V9.956H30.9738V10.694H29.4138V11.612H30.8058V12.344H29.4138V13.262H30.9978V14ZM32.6715 14H31.7475V9.956H32.7615L33.7035 11.63C33.9755 12.114 34.1695 12.524 34.2855 12.86C34.2455 12.564 34.2255 12.154 34.2255 11.63V9.956H35.1495V14H34.1355L33.1695 12.326C32.9175 11.898 32.7375 11.53 32.6295 11.222L32.5815 11.072C32.6415 11.432 32.6715 11.85 32.6715 12.326V14ZM37.9231 14H36.9991V12.518L35.6191 9.956H36.6991C37.1031 10.924 37.3551 11.552 37.4551 11.84C37.4951 11.66 37.6711 11.228 37.9831 10.544L38.2471 9.956H39.3211L37.9231 12.512V14ZM43.0445 12.434C43.0445 12.962 42.8965 13.366 42.6005 13.646C42.3045 13.922 41.9065 14.06 41.4065 14.06C40.9065 14.06 40.5065 13.922 40.2065 13.646C39.9065 13.37 39.7565 12.98 39.7565 12.476V9.956H40.6805V12.47C40.6805 12.97 40.9205 13.22 41.4005 13.22C41.8805 13.22 42.1205 12.96 42.1205 12.44V9.956H43.0445V12.434Z" fill="#F08D34"/>
</svg>
