<svg width="25" height="24" viewBox="0 0 25 24" fill="none" xmlns="http://www.w3.org/2000/svg">
    <path d="M3.00293 12H7.26686C8.02441 12 8.71693 12.428 9.05572 13.1056L9.45014 13.8944C9.78893 14.572 10.4815 15 11.239 15H12.9326C13.6013 15 14.2257 14.6658 14.5967 14.1094L15.4092 12.8906C15.7801 12.3342 16.4046 12 17.0733 12H21.0029M3.00293 12V18C3.00293 19.1046 3.89836 20 5.00293 20H19.0029C20.1075 20 21.0029 19.1046 21.0029 18V12M3.00293 12L5.51627 5.29775C5.809 4.51715 6.55524 4 7.38893 4H16.6169C17.4506 4 18.1969 4.51715 18.4896 5.29775L21.0029 12" stroke="#001A72" stroke-width="1.5" stroke-linecap="round" stroke-linejoin="round"/>
</svg>
