<svg width="65" height="47" viewBox="0 0 65 47" fill="none" xmlns="http://www.w3.org/2000/svg">
    <g clip-path="url(#clip0_115_7264)">
        <path d="M47.8986 11.3289V41.9832C47.8986 42.8201 47.0925 43.4957 46.094 43.4957H18.9061C17.9076 43.4957 17.1016 42.8201 17.1016 41.9832V11.3289C17.1016 10.492 17.9076 9.81641 18.9061 9.81641H22.2143V11.4298C22.2143 11.9541 22.7196 12.3877 23.3572 12.3877H41.6429C42.2685 12.3877 42.7858 11.9642 42.7858 11.4298V9.81641H46.094C47.0925 9.81641 47.8986 10.492 47.8986 11.3289Z" stroke="#F08D34" stroke-width="1.5"/>
        <path d="M20.4697 26.1521H32.6201" stroke="#F08D34"/>
        <path d="M23.5254 34.2491L28.4698 29.8425" stroke="#F08D34"/>
        <path d="M34.3047 31.7886L40.9934 25.9805" stroke="#F08D34"/>
        <path d="M30.166 29.8325L32.6683 32.0106" stroke="#F08D34"/>
        <path d="M33.5825 26.1521H34.7855" stroke="#F08D34" stroke-width="1.5"/>
        <path d="M20.4697 24.4377H37.3118" stroke="#F08D34"/>
        <path d="M20.4697 22.9253H44.5299" stroke="#F08D34"/>
        <path d="M20.4697 21.4126H44.5299" stroke="#F08D34"/>
        <path d="M20.4697 19.7993H44.5299" stroke="#F08D34"/>
        <path d="M22.5148 36.0844C23.2789 36.0844 23.8983 35.5652 23.8983 34.9248C23.8983 34.2843 23.2789 33.7651 22.5148 33.7651C21.7507 33.7651 21.1313 34.2843 21.1313 34.9248C21.1313 35.5652 21.7507 36.0844 22.5148 36.0844Z" stroke="#F08D34"/>
        <path d="M33.342 33.765C34.106 33.765 34.7254 33.2459 34.7254 32.6054C34.7254 31.965 34.106 31.4458 33.342 31.4458C32.5779 31.4458 31.9585 31.965 31.9585 32.6054C31.9585 33.2459 32.5779 33.765 33.342 33.765Z" stroke="#F08D34"/>
        <path d="M29.3722 30.2357C30.1363 30.2357 30.7557 29.7166 30.7557 29.0761C30.7557 28.4357 30.1363 27.9165 29.3722 27.9165C28.6082 27.9165 27.9888 28.4357 27.9888 29.0761C27.9888 29.7166 28.6082 30.2357 29.3722 30.2357Z" stroke="#F08D34"/>
        <path d="M40.4038 25.0227L42.9061 24.4277L42.2685 26.5453L40.4038 25.0227Z" fill="#F08D34" stroke="#F08D34"/>
        <path d="M26.9062 37.2944H20.5303V41.6304H26.9062V37.2944Z" fill="#F08D34" stroke="#F08D34"/>
        <path d="M35.8081 35.0759H29.4321V41.6303H35.8081V35.0759Z" fill="#F08D34" stroke="#F08D34"/>
        <path d="M44.4697 30.8408H38.0938V41.6303H44.4697V30.8408Z" fill="#F08D34" stroke="#F08D34"/>
        <path d="M34.6051 7.19481C34.6051 7.31581 34.593 7.43682 34.5569 7.54774C34.3645 8.35443 33.5103 8.95944 32.4998 8.95944C31.4893 8.95944 30.6351 8.35443 30.4427 7.54774C30.4186 7.43682 30.3945 7.31581 30.3945 7.19481C30.3945 6.2167 31.3329 5.43018 32.4998 5.43018C33.6667 5.43018 34.6051 6.2167 34.6051 7.19481Z" stroke="#F08D34"/>
        <path d="M41.6429 7.54768H37.0113C37.0234 7.45693 37.0234 7.36618 37.0234 7.27542C37.0234 5.18811 35.0144 3.50415 32.5241 3.50415C30.0339 3.50415 28.0249 5.1982 28.0249 7.27542C28.0249 7.36618 28.0249 7.45693 28.0369 7.54768H23.3572C22.7316 7.54768 22.2144 7.97119 22.2144 8.50563V11.4299C22.2144 11.9542 22.7196 12.3878 23.3572 12.3878H41.6429C42.2685 12.3878 42.7858 11.9643 42.7858 11.4299V8.50563C42.7858 7.97119 42.2685 7.54768 41.6429 7.54768ZM32.5001 8.95939C31.4775 8.95939 30.6354 8.35437 30.4429 7.54768C30.4189 7.43676 30.3948 7.31576 30.3948 7.19475C30.3948 6.21664 31.3332 5.43012 32.5001 5.43012C33.667 5.43012 34.6053 6.21664 34.6053 7.19475C34.6053 7.31576 34.5933 7.43676 34.5572 7.54768C34.3647 8.35437 33.5226 8.95939 32.5001 8.95939Z" stroke="#F08D34" stroke-width="1.5"/>
    </g>
    <path d="M20.8118 17.9409V13.5773H22.5333C22.8629 13.5773 23.1441 13.6362 23.3771 13.7541C23.6115 13.8706 23.7897 14.0361 23.9119 14.2506C24.0355 14.4636 24.0973 14.7144 24.0973 15.0027C24.0973 15.2925 24.0348 15.5418 23.9098 15.7506C23.7848 15.958 23.6037 16.1171 23.3664 16.2278C23.1306 16.3386 22.8451 16.394 22.5099 16.394H21.3572V15.6526H22.3608C22.5369 15.6526 22.6832 15.6284 22.7997 15.5801C22.9162 15.5318 23.0028 15.4594 23.0596 15.3628C23.1179 15.2662 23.147 15.1462 23.147 15.0027C23.147 14.8578 23.1179 14.7357 23.0596 14.6362C23.0028 14.5368 22.9154 14.4615 22.7975 14.4104C22.6811 14.3578 22.5341 14.3315 22.3565 14.3315H21.7343V17.9409H20.8118ZM23.1683 15.9551L24.2528 17.9409H23.2343L22.1733 15.9551H23.1683ZM24.7493 17.9409V13.5773H27.6896V14.3379H25.6718V15.3777H27.5383V16.1384H25.6718V17.1803H27.6981V17.9409H24.7493ZM28.4231 17.9409V13.5773H30.1447C30.4756 13.5773 30.7576 13.6405 30.9906 13.7669C31.2235 13.8919 31.4011 14.0659 31.5232 14.2889C31.6468 14.5105 31.7086 14.7662 31.7086 15.056C31.7086 15.3457 31.6461 15.6014 31.5211 15.823C31.3961 16.0446 31.215 16.2172 30.9778 16.3408C30.742 16.4644 30.4565 16.5261 30.1212 16.5261H29.0239V15.7868H29.9721C30.1496 15.7868 30.2959 15.7563 30.411 15.6952C30.5275 15.6327 30.6141 15.5467 30.6709 15.4374C30.7292 15.3266 30.7583 15.1994 30.7583 15.056C30.7583 14.9111 30.7292 14.7847 30.6709 14.6767C30.6141 14.5673 30.5275 14.4828 30.411 14.4232C30.2945 14.3621 30.1468 14.3315 29.9678 14.3315H29.3457V17.9409H28.4231ZM36.3178 15.7591C36.3178 16.235 36.2276 16.6398 36.0472 16.9736C35.8682 17.3074 35.6239 17.5624 35.3142 17.7385C35.006 17.9132 34.6594 18.0006 34.2745 18.0006C33.8867 18.0006 33.5387 17.9125 33.2304 17.7364C32.9222 17.5602 32.6786 17.3053 32.4996 16.9715C32.3206 16.6377 32.2311 16.2335 32.2311 15.7591C32.2311 15.2832 32.3206 14.8784 32.4996 14.5446C32.6786 14.2108 32.9222 13.9565 33.2304 13.7818C33.5387 13.6057 33.8867 13.5176 34.2745 13.5176C34.6594 13.5176 35.006 13.6057 35.3142 13.7818C35.6239 13.9565 35.8682 14.2108 36.0472 14.5446C36.2276 14.8784 36.3178 15.2832 36.3178 15.7591ZM35.3824 15.7591C35.3824 15.4509 35.3363 15.1909 35.2439 14.9793C35.153 14.7676 35.0245 14.6071 34.8583 14.4977C34.6921 14.3884 34.4975 14.3337 34.2745 14.3337C34.0515 14.3337 33.8569 14.3884 33.6907 14.4977C33.5245 14.6071 33.3952 14.7676 33.3029 14.9793C33.212 15.1909 33.1665 15.4509 33.1665 15.7591C33.1665 16.0673 33.212 16.3273 33.3029 16.5389C33.3952 16.7506 33.5245 16.9111 33.6907 17.0205C33.8569 17.1298 34.0515 17.1845 34.2745 17.1845C34.4975 17.1845 34.6921 17.1298 34.8583 17.0205C35.0245 16.9111 35.153 16.7506 35.2439 16.5389C35.3363 16.3273 35.3824 16.0673 35.3824 15.7591ZM37.0012 17.9409V13.5773H38.7228C39.0523 13.5773 39.3336 13.6362 39.5665 13.7541C39.8009 13.8706 39.9792 14.0361 40.1013 14.2506C40.2249 14.4636 40.2867 14.7144 40.2867 15.0027C40.2867 15.2925 40.2242 15.5418 40.0992 15.7506C39.9742 15.958 39.7931 16.1171 39.5559 16.2278C39.3201 16.3386 39.0346 16.394 38.6994 16.394H37.5467V15.6526H38.5502C38.7263 15.6526 38.8727 15.6284 38.9891 15.5801C39.1056 15.5318 39.1923 15.4594 39.2491 15.3628C39.3073 15.2662 39.3364 15.1462 39.3364 15.0027C39.3364 14.8578 39.3073 14.7357 39.2491 14.6362C39.1923 14.5368 39.1049 14.4615 38.987 14.4104C38.8705 14.3578 38.7235 14.3315 38.546 14.3315H37.9238V17.9409H37.0012ZM39.3577 15.9551L40.4423 17.9409H39.4238L38.3627 15.9551H39.3577ZM40.7725 14.3379V13.5773H44.3563V14.3379H43.0204V17.9409H42.1085V14.3379H40.7725Z" fill="#F08D34"/>
    <defs>
        <clipPath id="clip0_115_7264">
            <rect width="32" height="41" fill="white" transform="translate(16.5 3)"/>
        </clipPath>
    </defs>
</svg>
