<svg width="35" height="35" viewBox="0 0 35 35" fill="none" xmlns="http://www.w3.org/2000/svg">
    <path d="M20.201 4.72129L20.6987 4.67248V4.67248L20.201 4.72129ZM20.2509 5.22964L20.7485 5.18084V5.18084L20.2509 5.22964ZM23.5225 6.57019L23.2022 6.18625V6.18625L23.5225 6.57019ZM23.8374 6.30755L24.1577 6.69149V6.69149L23.8374 6.30755ZM25.2363 5.48564L25.2613 4.98626L25.2363 5.48564ZM26.5464 6.4429L26.1895 6.793L26.5464 6.4429ZM28.0567 7.98278L27.6997 8.33289L28.0567 7.98278ZM28.9631 9.26702L28.4637 9.29188V9.29188L28.9631 9.26702ZM28.1887 10.6349L28.5787 10.9478L28.1887 10.6349ZM27.8096 11.1073L27.4197 10.7944V10.7944L27.8096 11.1073ZM26.5163 13.5535L26.0551 13.7466V13.7466L26.5163 13.5535ZM29.1666 14.3487L29.2174 13.8513H29.2174L29.1666 14.3487ZM29.6692 14.3999L29.6185 14.8974H29.6185L29.6692 14.3999ZM31.2085 14.8161L30.8374 15.1513V15.1513L31.2085 14.8161ZM31.2085 20.1836L30.8374 19.8484V19.8484L31.2085 20.1836ZM29.6692 20.5997L29.7199 21.0972L29.6692 20.5997ZM29.1672 20.6509L29.1165 20.1535L29.1672 20.6509ZM26.5168 21.4461L26.0556 21.253V21.253L26.5168 21.4461ZM27.8102 23.8923L27.4202 24.2053L27.8102 23.8923ZM28.1888 24.3641L28.5787 24.0512L28.1888 24.3641ZM28.9631 25.732L28.4638 25.7071V25.7071L28.9631 25.732ZM28.0568 27.0162L28.4137 27.3664V27.3663L28.0568 27.0162ZM26.5465 28.5561L26.1895 28.206L26.5465 28.5561ZM25.2364 29.5134L25.2614 30.0128H25.2614L25.2364 29.5134ZM23.8374 28.6915L23.5171 29.0754H23.5171L23.8374 28.6915ZM23.5226 28.4288L23.8429 28.0449H23.8429L23.5226 28.4288ZM20.251 29.7694L20.7486 29.8182V29.8182L20.251 29.7694ZM20.201 30.2784L20.6987 30.3272L20.201 30.2784ZM19.789 31.824L19.4532 31.4536V31.4536L19.789 31.824ZM14.5379 31.824L14.202 32.1944L14.202 32.1944L14.5379 31.824ZM14.1259 30.2784L13.6283 30.3272H13.6283L14.1259 30.2784ZM14.076 29.77L14.5736 29.7212L14.5736 29.7212L14.076 29.77ZM13.2755 27.0612L13.0859 27.5239L13.2755 27.0612ZM10.8044 28.4294L10.4841 28.0455H10.4841L10.8044 28.4294ZM10.4894 28.6921L10.8097 29.0761H10.8097L10.4894 28.6921ZM9.09047 29.514L9.06552 30.0134H9.06552L9.09047 29.514ZM7.78039 28.5568L7.42342 28.9069L7.42342 28.9069L7.78039 28.5568ZM6.27012 27.0169L6.62708 26.6668L6.62708 26.6668L6.27012 27.0169ZM5.36374 25.7327L5.86312 25.7078L5.36374 25.7327ZM6.13812 24.3648L6.52809 24.6777H6.52809L6.13812 24.3648ZM6.51719 23.8924L6.12722 23.5794H6.12722L6.51719 23.8924ZM7.81053 21.4462L8.27175 21.2531V21.2531L7.81053 21.4462ZM5.16019 20.651L5.10947 21.1484H5.10947L5.16019 20.651ZM4.65771 20.5997L4.70843 20.1023H4.70843L4.65771 20.5997ZM3.11848 20.1836L3.48953 19.8484L3.48953 19.8484L3.11848 20.1836ZM4.65771 14.3999L4.60699 13.9025H4.60699L4.65771 14.3999ZM5.16072 14.3486L5.21144 14.8461H5.21144L5.16072 14.3486ZM7.81107 13.5535L7.34986 13.3604L7.81107 13.5535ZM6.51773 11.1072L6.12776 11.4202L6.51773 11.1072ZM6.13818 10.6343L6.52815 10.3213L6.13818 10.6343ZM5.3638 9.26636L4.86442 9.24151V9.24151L5.3638 9.26636ZM6.27018 7.98212L5.91321 7.63202L6.27018 7.98212ZM7.78045 6.44224L8.13742 6.79234H8.13742L7.78045 6.44224ZM10.4895 6.30689L10.8098 5.92294L10.8098 5.92294L10.4895 6.30689ZM10.8045 6.56962L10.4842 6.95356H10.4842L10.8045 6.56962ZM13.2755 7.9378L13.0859 7.47514L13.2755 7.9378ZM14.0761 5.22907L13.5785 5.18026V5.18026L14.0761 5.22907ZM14.1259 4.72129L14.6235 4.77009V4.77009L14.1259 4.72129ZM20.6987 4.67248C20.6579 4.257 20.6236 3.89753 20.558 3.61202C20.4891 3.31259 20.3727 3.02997 20.1249 2.80528L19.4532 3.5461C19.4912 3.5806 19.5388 3.64198 19.5834 3.83615C19.6313 4.04423 19.6601 4.32797 19.7034 4.77009L20.6987 4.67248ZM20.7485 5.18084L20.6987 4.67248L19.7034 4.77009L19.7533 5.27845L20.7485 5.18084ZM21.241 7.47571C21.19 7.45481 21.0873 7.39507 20.9882 6.9975C20.889 6.59999 20.8313 6.02455 20.7485 5.18084L19.7533 5.27845C19.8327 6.08833 19.8966 6.75307 20.0179 7.23945C20.1391 7.72576 20.3556 8.19359 20.8619 8.40104L21.241 7.47571ZM23.2022 6.18625C22.5513 6.72932 22.1063 7.09877 21.7568 7.31243C21.4072 7.52613 21.292 7.49661 21.241 7.47571L20.8619 8.40104C21.3682 8.6085 21.8507 8.42706 22.2783 8.16566C22.706 7.90423 23.2179 7.47543 23.8428 6.95414L23.2022 6.18625ZM23.5171 5.9236L23.2022 6.18625L23.8428 6.95414L24.1577 6.69149L23.5171 5.9236ZM25.2613 4.98626C24.9227 4.96935 24.6373 5.08994 24.3745 5.2569C24.1238 5.41616 23.8429 5.65179 23.5171 5.9236L24.1577 6.69149C24.5043 6.40236 24.7276 6.21729 24.9107 6.10096C25.0817 5.99233 25.1596 5.98243 25.2114 5.98502L25.2613 4.98626ZM26.9034 6.09279C26.6063 5.78986 26.3503 5.5274 26.1167 5.34394C25.8718 5.15162 25.5999 5.00318 25.2613 4.98626L25.2114 5.98502C25.2632 5.9876 25.3397 6.00521 25.499 6.13035C25.6696 6.26435 25.8734 6.47077 26.1895 6.793L26.9034 6.09279ZM28.4137 7.63268L26.9034 6.09279L26.1895 6.793L27.6997 8.33289L28.4137 7.63268ZM29.4625 9.24217C29.4461 8.91356 29.3057 8.64771 29.1231 8.40682C28.9491 8.17725 28.7002 7.92488 28.4137 7.63268L27.6997 8.33289C28.0048 8.64396 28.1997 8.84404 28.3262 9.01093C28.4442 9.16652 28.4612 9.24115 28.4637 9.29188L29.4625 9.24217ZM28.5787 10.9478C28.8348 10.6286 29.0574 10.3528 29.2078 10.1071C29.3655 9.84926 29.4788 9.57078 29.4625 9.24217L28.4637 9.29188C28.4662 9.34261 28.4567 9.41856 28.3548 9.58509C28.2455 9.76372 28.0714 9.98216 27.7987 10.322L28.5787 10.9478ZM28.1996 11.4202L28.5787 10.9478L27.7987 10.322L27.4197 10.7944L28.1996 11.4202ZM26.9775 13.3604C26.956 13.3089 26.9265 13.1956 27.1277 12.8517C27.3297 12.5064 27.6814 12.0661 28.1996 11.4202L27.4197 10.7944C26.9227 11.4137 26.5129 11.9223 26.2646 12.3468C26.0155 12.7725 25.8471 13.2497 26.0551 13.7466L26.9775 13.3604ZM29.2174 13.8513C28.3936 13.7673 27.8331 13.7088 27.4454 13.6104C27.0591 13.5124 26.9991 13.4119 26.9775 13.3604L26.0551 13.7466C26.2631 14.2435 26.7213 14.4583 27.1994 14.5797C27.676 14.7006 28.3259 14.7656 29.1159 14.8461L29.2174 13.8513ZM29.7199 13.9025L29.2174 13.8513L29.1159 14.8461L29.6185 14.8974L29.7199 13.9025ZM31.5795 14.481C31.356 14.2335 31.0746 14.1165 30.7763 14.0467C30.4919 13.9802 30.1338 13.9447 29.7199 13.9025L29.6185 14.8974C30.0589 14.9423 30.3414 14.972 30.5486 15.0205C30.7419 15.0657 30.803 15.1132 30.8374 15.1513L31.5795 14.481ZM31.9664 16.3896C31.9664 15.9736 31.9673 15.6138 31.93 15.3241C31.8909 15.0203 31.803 14.7285 31.5795 14.481L30.8374 15.1513C30.8718 15.1893 30.9129 15.2549 30.9382 15.4518C30.9654 15.6628 30.9664 15.9469 30.9664 16.3896H31.9664ZM31.9664 18.6101V16.3896H30.9664V18.6101H31.9664ZM31.5795 20.5187C31.803 20.2712 31.8909 19.9794 31.93 19.6756C31.9673 19.3859 31.9664 19.026 31.9664 18.6101H30.9664C30.9664 19.0527 30.9654 19.3368 30.9382 19.5479C30.9129 19.7448 30.8718 19.8104 30.8374 19.8484L31.5795 20.5187ZM29.7199 21.0972C30.1338 21.055 30.4919 21.0194 30.7763 20.9529C31.0746 20.8832 31.356 20.7662 31.5795 20.5187L30.8374 19.8484C30.803 19.8865 30.7419 19.934 30.5486 19.9792C30.3414 20.0276 30.0589 20.0574 29.6185 20.1023L29.7199 21.0972ZM29.2179 21.1483L29.7199 21.0972L29.6185 20.1023L29.1165 20.1535L29.2179 21.1483ZM26.9781 21.6392C26.9996 21.5877 27.0597 21.4873 27.4459 21.3892C27.8336 21.2908 28.3941 21.2323 29.2179 21.1483L29.1165 20.1535C28.3264 20.2341 27.6765 20.299 27.1999 20.42C26.7218 20.5413 26.2636 20.7562 26.0556 21.253L26.9781 21.6392ZM28.2001 23.5794C27.6819 22.9335 27.3302 22.4932 27.1283 22.1479C26.9271 21.804 26.9565 21.6907 26.9781 21.6392L26.0556 21.253C25.8476 21.7499 26.0161 22.2271 26.2651 22.6529C26.5134 23.0773 26.9232 23.5859 27.4202 24.2053L28.2001 23.5794ZM28.5787 24.0512L28.2001 23.5794L27.4202 24.2053L27.7988 24.677L28.5787 24.0512ZM29.4625 25.7569C29.4789 25.4282 29.3656 25.1498 29.2078 24.8919C29.0574 24.6462 28.8349 24.3704 28.5787 24.0512L27.7988 24.677C28.0715 25.0169 28.2456 25.2353 28.3549 25.4139C28.4568 25.5805 28.4663 25.6564 28.4638 25.7071L29.4625 25.7569ZM28.4137 27.3663C28.7003 27.0742 28.9492 26.8218 29.1232 26.5922C29.3058 26.3513 29.4462 26.0855 29.4625 25.7569L28.4638 25.7071C28.4612 25.7579 28.4442 25.8325 28.3263 25.9881C28.1998 26.155 28.0049 26.3551 27.6998 26.6661L28.4137 27.3663ZM26.9035 28.9062L28.4137 27.3664L27.6998 26.6661L26.1895 28.206L26.9035 28.9062ZM25.2614 30.0128C25.6 29.9958 25.8719 29.8474 26.1168 29.6551C26.3503 29.4716 26.6064 29.2092 26.9035 28.9062L26.1895 28.206C25.8735 28.5283 25.6696 28.7347 25.4991 28.8687C25.3397 28.9938 25.2632 29.0114 25.2115 29.014L25.2614 30.0128ZM23.5171 29.0754C23.843 29.3472 24.1239 29.5829 24.3746 29.7421C24.6374 29.9091 24.9228 30.0297 25.2614 30.0128L25.2115 29.014C25.1597 29.0166 25.0818 29.0067 24.9108 28.8981C24.7277 28.7817 24.5043 28.5967 24.1577 28.3075L23.5171 29.0754ZM23.2023 28.8128L23.5171 29.0754L24.1577 28.3075L23.8429 28.0449L23.2023 28.8128ZM21.2411 27.5233C21.2921 27.5024 21.4072 27.4729 21.7568 27.6866C22.1064 27.9003 22.5513 28.2697 23.2023 28.8128L23.8429 28.0449C23.218 27.5236 22.7061 27.0948 22.2784 26.8334C21.8507 26.572 21.3682 26.3905 20.8619 26.598L21.2411 27.5233ZM20.7486 29.8182C20.8313 28.9745 20.8891 28.399 20.9882 28.0015C21.0874 27.604 21.1901 27.5442 21.2411 27.5233L20.8619 26.598C20.3557 26.8054 20.1392 27.2733 20.0179 27.7596C19.8967 28.246 19.8328 28.9107 19.7534 29.7206L20.7486 29.8182ZM20.6987 30.3272L20.7486 29.8182L19.7534 29.7206L19.7034 30.2296L20.6987 30.3272ZM20.1249 32.1944C20.3727 31.9697 20.4891 31.6871 20.558 31.3877C20.6236 31.1021 20.6579 30.7427 20.6987 30.3272L19.7034 30.2296C19.6601 30.6717 19.6313 30.9554 19.5834 31.1635C19.5388 31.3577 19.4912 31.4191 19.4532 31.4536L20.1249 32.1944ZM18.2106 32.5832C18.6281 32.5832 18.9892 32.5841 19.2797 32.5467C19.5845 32.5074 19.8771 32.4191 20.1249 32.1944L19.4532 31.4536C19.4151 31.4881 19.3494 31.5294 19.1518 31.5549C18.94 31.5822 18.6548 31.5832 18.2106 31.5832V32.5832ZM16.1163 32.5832H18.2106V31.5832H16.1163V32.5832ZM14.202 32.1944C14.4498 32.4191 14.7425 32.5074 15.0472 32.5467C15.3378 32.5841 15.6988 32.5832 16.1163 32.5832V31.5832C15.6721 31.5832 15.3869 31.5822 15.1751 31.5549C14.9775 31.5294 14.9118 31.4881 14.8738 31.4536L14.202 32.1944ZM13.6283 30.3272C13.669 30.7427 13.7033 31.1021 13.769 31.3877C13.8378 31.6871 13.9542 31.9697 14.202 32.1944L14.8738 31.4536C14.8357 31.4191 14.7882 31.3577 14.7435 31.1635C14.6957 30.9554 14.6669 30.6717 14.6235 30.2296L13.6283 30.3272ZM13.5784 29.8188L13.6283 30.3272L14.6235 30.2296L14.5736 29.7212L13.5784 29.8188ZM13.0859 27.5239C13.1369 27.5448 13.2396 27.6045 13.3388 28.0021C13.4379 28.3996 13.4957 28.9751 13.5784 29.8188L14.5736 29.7212C14.4942 28.9113 14.4303 28.2465 14.309 27.7601C14.1878 27.2738 13.9713 26.806 13.465 26.5986L13.0859 27.5239ZM11.1247 28.8134C11.7757 28.2703 12.2206 27.9008 12.5702 27.6872C12.9198 27.4735 13.0349 27.503 13.0859 27.5239L13.465 26.5986C12.9588 26.3911 12.4763 26.5725 12.0486 26.8339C11.6209 27.0954 11.109 27.5242 10.4841 28.0455L11.1247 28.8134ZM10.8097 29.0761L11.1247 28.8134L10.4841 28.0455L10.1691 28.3082L10.8097 29.0761ZM9.06552 30.0134C9.40412 30.0303 9.68951 29.9098 9.95231 29.7428C10.203 29.5835 10.4839 29.3479 10.8097 29.0761L10.1691 28.3082C9.82256 28.5973 9.59917 28.7824 9.41607 28.8987C9.24507 29.0074 9.16718 29.0173 9.11542 29.0147L9.06552 30.0134ZM7.42342 28.9069C7.72053 29.2098 7.97655 29.4723 8.21012 29.6558C8.45497 29.8481 8.72691 29.9965 9.06552 30.0134L9.11542 29.0147C9.06366 29.0121 8.98714 28.9945 8.82783 28.8693C8.65723 28.7353 8.4534 28.5289 8.13736 28.2067L7.42342 28.9069ZM5.91315 27.367L7.42342 28.9069L8.13736 28.2067L6.62708 26.6668L5.91315 27.367ZM4.86435 25.7575C4.88071 26.0861 5.02107 26.352 5.20368 26.5929C5.37771 26.8224 5.62657 27.0748 5.91315 27.367L6.62708 26.6668C6.322 26.3557 6.1271 26.1557 6.00058 25.9888C5.88264 25.8332 5.86564 25.7585 5.86312 25.7078L4.86435 25.7575ZM5.74815 24.0518C5.492 24.3711 5.26944 24.6469 5.11906 24.8926C4.96127 25.1504 4.848 25.4289 4.86435 25.7575L5.86312 25.7078C5.86059 25.6571 5.87009 25.5811 5.972 25.4146C6.08133 25.236 6.25539 25.0175 6.52809 24.6777L5.74815 24.0518ZM6.12722 23.5794L5.74815 24.0518L6.52809 24.6777L6.90716 24.2053L6.12722 23.5794ZM7.34932 21.6393C7.37088 21.6908 7.4003 21.804 7.1991 22.148C6.99715 22.4932 6.64548 22.9336 6.12722 23.5794L6.90716 24.2053C7.40417 23.5859 7.81397 23.0774 8.06227 22.6529C8.31131 22.2272 8.47976 21.75 8.27175 21.2531L7.34932 21.6393ZM5.10947 21.1484C5.93328 21.2324 6.49378 21.2909 6.88146 21.3893C7.26769 21.4873 7.32776 21.5878 7.34932 21.6393L8.27175 21.2531C8.06374 20.7562 7.60555 20.5413 7.12747 20.42C6.65083 20.299 6.00094 20.2341 5.2109 20.1536L5.10947 21.1484ZM4.60699 21.0972L5.10947 21.1484L5.2109 20.1536L4.70843 20.1023L4.60699 21.0972ZM2.74742 20.5187C2.97096 20.7662 3.25235 20.8832 3.55064 20.9529C3.83504 21.0194 4.19316 21.055 4.60699 21.0972L4.70843 20.1023C4.26803 20.0574 3.98548 20.0276 3.7783 19.9792C3.58501 19.934 3.52389 19.8865 3.48953 19.8484L2.74742 20.5187ZM2.36058 18.6101C2.36058 19.026 2.35961 19.3859 2.39691 19.6756C2.43603 19.9794 2.52389 20.2712 2.74743 20.5187L3.48953 19.8484C3.45517 19.8104 3.41407 19.7448 3.38872 19.5479C3.36155 19.3368 3.36058 19.0527 3.36058 18.6101H2.36058ZM2.36058 16.3896V18.6101H3.36058V16.3896H2.36058ZM2.74743 14.481C2.52389 14.7285 2.43603 15.0203 2.39691 15.3241C2.35961 15.6138 2.36058 15.9736 2.36058 16.3896H3.36058C3.36058 15.9469 3.36155 15.6628 3.38872 15.4518C3.41407 15.2549 3.45517 15.1893 3.48953 15.1513L2.74743 14.481ZM4.60699 13.9025C4.19316 13.9447 3.83504 13.9802 3.55064 14.0467C3.25235 14.1165 2.97096 14.2335 2.74743 14.481L3.48953 15.1513C3.52389 15.1132 3.58501 15.0657 3.7783 15.0205C3.98548 14.972 4.26803 14.9423 4.70843 14.8974L4.60699 13.9025ZM5.11001 13.8512L4.60699 13.9025L4.70843 14.8974L5.21144 14.8461L5.11001 13.8512ZM7.34986 13.3604C7.3283 13.4119 7.26823 13.5123 6.882 13.6103C6.49432 13.7087 5.93382 13.7672 5.11001 13.8512L5.21144 14.8461C6.00148 14.7655 6.65137 14.7006 7.128 14.5796C7.60609 14.4583 8.06427 14.2434 8.27228 13.7465L7.34986 13.3604ZM6.12776 11.4202C6.64602 12.066 6.99768 12.5064 7.19964 12.8516C7.40083 13.1956 7.37142 13.3089 7.34986 13.3604L8.27228 13.7465C8.4803 13.2497 8.31185 12.7725 8.0628 12.3467C7.81451 11.9222 7.40471 11.4137 6.9077 10.7943L6.12776 11.4202ZM5.74821 10.9472L6.12776 11.4202L6.9077 10.7943L6.52815 10.3213L5.74821 10.9472ZM4.86442 9.24151C4.84806 9.57012 4.96133 9.8486 5.11912 10.1064C5.2695 10.3521 5.49206 10.628 5.74821 10.9472L6.52815 10.3213C6.25546 9.9815 6.08139 9.76306 5.97207 9.58443C5.87016 9.4179 5.86066 9.34195 5.86318 9.29122L4.86442 9.24151ZM5.91321 7.63202C5.62663 7.92422 5.37778 8.17659 5.20374 8.40616C5.02114 8.64705 4.88077 8.9129 4.86442 9.24151L5.86318 9.29122C5.86571 9.24049 5.8827 9.16586 6.00064 9.01027C6.12716 8.84338 6.32206 8.6433 6.62715 8.33223L5.91321 7.63202ZM7.42348 6.09213L5.91321 7.63202L6.62715 8.33223L8.13742 6.79234L7.42348 6.09213ZM9.06558 4.9856C8.72698 5.00252 8.45503 5.15096 8.21018 5.34328C7.97661 5.52674 7.72059 5.7892 7.42348 6.09213L8.13742 6.79234C8.45346 6.47011 8.65729 6.26369 8.82789 6.12969C8.9872 6.00455 9.06372 5.98694 9.11548 5.98436L9.06558 4.9856ZM10.8098 5.92294C10.484 5.65113 10.2031 5.4155 9.95237 5.25624C9.68957 5.08928 9.40419 4.96869 9.06558 4.9856L9.11548 5.98436C9.16724 5.98177 9.24514 5.99167 9.41613 6.1003C9.59923 6.21663 9.82263 6.4017 10.1692 6.69083L10.8098 5.92294ZM11.1247 6.18568L10.8098 5.92294L10.1692 6.69083L10.4842 6.95356L11.1247 6.18568ZM13.0859 7.47514C13.0349 7.49603 12.9198 7.52556 12.5702 7.31186C12.2207 7.0982 11.7757 6.72874 11.1247 6.18568L10.4842 6.95356C11.109 7.47485 11.621 7.90366 12.0487 8.16509C12.4763 8.42648 12.9588 8.60792 13.4651 8.40047L13.0859 7.47514ZM13.5785 5.18026C13.4957 6.02398 13.4379 6.59942 13.3388 6.99692C13.2397 7.3945 13.1369 7.45424 13.0859 7.47514L13.4651 8.40047C13.9714 8.19302 14.1878 7.72519 14.3091 7.23888C14.4304 6.7525 14.4943 6.08775 14.5737 5.27787L13.5785 5.18026ZM13.6283 4.67248L13.5785 5.18026L14.5737 5.27787L14.6235 4.77009L13.6283 4.67248ZM14.202 2.80528C13.9542 3.02997 13.8378 3.31259 13.769 3.61202C13.7033 3.89753 13.669 4.257 13.6283 4.67248L14.6235 4.77009C14.6669 4.32797 14.6957 4.04423 14.7435 3.83615C14.7882 3.64198 14.8357 3.5806 14.8738 3.5461L14.202 2.80528ZM16.1163 2.4165C15.6989 2.4165 15.3378 2.41553 15.0472 2.45301C14.7425 2.49232 14.4498 2.5806 14.202 2.80528L14.8738 3.5461C14.9118 3.5116 14.9775 3.47028 15.1751 3.44479C15.3869 3.41748 15.6721 3.4165 16.1163 3.4165V2.4165ZM18.2106 2.4165H16.1163V3.4165H18.2106V2.4165ZM20.1249 2.80528C19.8771 2.5806 19.5845 2.49232 19.2797 2.45301C18.9892 2.41553 18.6281 2.4165 18.2106 2.4165V3.4165C18.6548 3.4165 18.94 3.41748 19.1518 3.44479C19.3494 3.47028 19.4151 3.5116 19.4532 3.5461L20.1249 2.80528ZM22.3846 17.4998C22.3846 20.4546 20.0379 22.8332 17.1635 22.8332V23.8332C20.6084 23.8332 23.3846 20.9884 23.3846 17.4998H22.3846ZM17.1635 12.1665C20.0379 12.1665 22.3846 14.5451 22.3846 17.4998H23.3846C23.3846 14.0112 20.6084 11.1665 17.1635 11.1665V12.1665ZM11.9423 17.4998C11.9423 14.5451 14.289 12.1665 17.1635 12.1665V11.1665C13.7185 11.1665 10.9423 14.0112 10.9423 17.4998H11.9423ZM17.1635 22.8332C14.289 22.8332 11.9423 20.4546 11.9423 17.4998H10.9423C10.9423 20.9884 13.7185 23.8332 17.1635 23.8332V22.8332Z" fill="white"/>
</svg>
