<svg width="37" height="37" viewBox="0 0 37 37" fill="none" xmlns="http://www.w3.org/2000/svg">
    <path d="M27.75 28.8327C27.75 24.1589 22.3542 23.125 18.5 23.125C14.6458 23.125 9.25 24.1589 9.25 28.8327M32.375 18.5C32.375 26.163 26.163 32.375 18.5 32.375C10.837 32.375 4.625 26.163 4.625 18.5C4.625 10.837 10.837 4.625 18.5 4.625C26.163 4.625 32.375 10.837 32.375 18.5ZM23.125 13.875C23.125 16.4293 21.0543 18.5 18.5 18.5C15.9457 18.5 13.875 16.4293 13.875 13.875C13.875 11.3207 15.9457 9.25 18.5 9.25C21.0543 9.25 23.125 11.3207 23.125 13.875Z" stroke="white" stroke-width="1.5" stroke-linecap="round" stroke-linejoin="round"/>
</svg>
